<svg xmlns="http://www.w3.org/2000/svg" width="850" height="76" viewBox="0 0 850 76">
  <defs>
    <style>
      .cls-1 {
        fill-rule: evenodd;
      }
      .cls-1,
      .cls-2 {
        fill: #fff;
      }
    </style>
  </defs>
  <circle cx="423" cy="10" r="9.5" class="cls-2"/>
  <path id="tech_media_finland" data-name="tech media finland" class="cls-1" d="M41.817,25.794h13.92V9.714H8.857v16.08h13.92v40.56h19.04V25.794Zm17.759,40.56H99.9V50.514H77.5v-5.28h19.76v-14.8H77.5v-4.88h21.04V9.714H59.576v56.64Zm42.08-16.12a28.842,28.842,0,0,0,6.56,9.44,29.157,29.157,0,0,0,9.8,6.12,35.629,35.629,0,0,0,24.76-.12,28.2,28.2,0,0,0,9.44-6.12l-11.68-14a11.967,11.967,0,0,1-3.72,3.2,11.105,11.105,0,0,1-5.64,1.36,11.631,11.631,0,0,1-4.4-.84,10.518,10.518,0,0,1-3.64-2.44,11.986,11.986,0,0,1-2.48-3.8,12.841,12.841,0,0,1-.92-5,13.98,13.98,0,0,1,.88-5.08,11.312,11.312,0,0,1,2.44-3.88,10.535,10.535,0,0,1,3.64-2.44,11.848,11.848,0,0,1,4.48-.84,12.922,12.922,0,0,1,5.36,1.08,10.319,10.319,0,0,1,4,3.16l11.68-14.08a28.73,28.73,0,0,0-9.76-5.72,36.085,36.085,0,0,0-12.4-2.12,33.948,33.948,0,0,0-12.04,2.12,28.988,28.988,0,0,0-9.8,6.04,28.3,28.3,0,0,0-6.56,9.44,30.589,30.589,0,0,0-2.4,12.32A30.092,30.092,0,0,0,101.656,50.234Zm88.4,16.12H209.1V9.714h-19.12v19.2h-15.52V9.714H155.5v56.64h19.04V44.834h15.52v21.52Zm62.879-32,10.4,32h13.44l10.56-31.92,0.48,0.08-0.56,31.84h18.56V9.714h-25.71l-8.89,30.48h-0.4L260.562,9.714H235.655v56.64h17.76l-0.88-32h0.4Zm57.359,32h40.32V50.514h-22.4v-5.28h19.76v-14.8h-19.76v-4.88h21.04V9.714h-38.96v56.64Zm66.96,0a43.771,43.771,0,0,0,12.16-1.68,30.282,30.282,0,0,0,10.32-5.16,25.192,25.192,0,0,0,7.16-8.92,28.856,28.856,0,0,0,2.68-12.88q0-8.16-2.8-13.52a23.473,23.473,0,0,0-7.48-8.6,29.779,29.779,0,0,0-10.8-4.56,60.762,60.762,0,0,0-12.84-1.32h-21.12v56.64h22.72Zm-0.16-40.48q6,0,9.6,3.07a10.657,10.657,0,0,1,3.6,8.571q0,6.619-3.6,9.529t-10.32,2.91h-3.52V25.874h4.24Zm36.48,40.48h19.2V22.214S429.773,25,423,25c-7,0-9.426-2.786-9.426-2.786v44.14Zm21.2,0h20.16l2.8-8.32h18l2.96,8.32h20.72l-22.08-56.64h-20.24Zm36.72-22.88h-9.2l4.64-14Zm47.44,22.88h10.08V42.514h24.96v-8.48h-24.96V18.514h26.48v-8.8h-36.56v56.64Zm43.84,0h10.08V9.714h-10.08v56.64Zm18.56,0h10.08V22.594h0.16l26.88,43.76h12.8V9.714h-10.08v42.4h-0.16l-26.32-42.4h-13.36v56.64Zm56.4,0h34.16v-8.96h-24.08V9.714h-10.08v56.64Zm36,0h11.28l5.12-12.96h24.56l5.28,12.96h11.52l-24.4-56.64h-8.72Zm19.84-21.6,8.88-23.04,8.72,23.04h-17.6Zm39.52,21.6h10.08V22.594h0.16l26.88,43.76h12.8V9.714h-10.08v42.4h-0.16l-26.32-42.4h-13.36v56.64Zm56.4,0h20.08a39.4,39.4,0,0,0,11.12-1.64,30.436,30.436,0,0,0,10.08-5.08,26.216,26.216,0,0,0,7.28-8.8,27.32,27.32,0,0,0,2.8-12.8,28.907,28.907,0,0,0-2.8-13.4,24.94,24.94,0,0,0-7.28-8.72,28.831,28.831,0,0,0-10.08-4.76,44.514,44.514,0,0,0-11.12-1.44h-20.08v56.64Zm10.08-8.8v-39.2h8.4a39.192,39.192,0,0,1,7.84.8,19.238,19.238,0,0,1,7.08,2.96,16.1,16.1,0,0,1,5.16,6,21.462,21.462,0,0,1,2,9.92,20.166,20.166,0,0,1-2,9.52,16.6,16.6,0,0,1-5.16,5.96,20.427,20.427,0,0,1-7.08,3.12,34.2,34.2,0,0,1-7.84.92h-8.4Z"/>
</svg>
